ply
format ascii 1.0
element vertex 24
property float x
property float y
property float z
element face 32
property list uchar int vertex_indices
end_header
0 -5 0
0 5 0
4 0 0
0 -5 100
0 5 100
4 0 100
44.853 -0.535 0
43.683 1.415 0
44.853 3.366 0
44.853 -0.535 100
43.683 1.415 100
44.853 3.366 100
44.853 -3.366 0
43.683 -1.415 0
44.853 0.535 0
44.853 -3.366 100
43.683 -1.415 100
44.853 0.535 100
44.398 -6.89 0
40.264 0 0
44.398 6.89 0
44.398 -6.89 100
40.264 0 100
44.398 6.89 100
3 1 0 2
3 4 3 5
3 7 6 8
3 10 9 11
3 13 12 14
3 16 15 17
3 19 18 20
3 22 21 23
3 0 1 4
3 4 3 0
3 1 2 5
3 5 4 1
3 2 0 3
3 3 5 2
3 6 7 10
3 10 9 6
3 7 8 11
3 11 10 7
3 8 6 9
3 9 11 8
3 12 13 16
3 16 15 12
3 13 14 17
3 17 16 13
3 14 12 15
3 15 17 14
3 18 19 22
3 22 21 18
3 19 20 23
3 23 22 19
3 20 18 21
3 21 23 20
