ply
format ascii 1.0
element vertex 292
property float x
property float y
property float z
element face 572
property list uchar int vertex_indices
end_header
18.401 -18.79 0
15.961 -18.197 0
15.105 -18.099 0
13.681 -17.929 0
12.356 -17.763 0
11.124 -17.6 0
9.982 -17.442 0
8.923 -17.288 0
7.945 -17.138 0
7.044 -16.992 0
6.214 -16.85 0
5.453 -16.712 0
4.755 -16.578 0
4.119 -16.448 0
3.539 -16.322 0
3.013 -16.2 0
2.537 -16.082 0
2.107 -15.968 0
1.722 -15.858 0
1.377 -15.752 0
1.069 -15.65 0
0.796 -15.552 0
0.555 -15.458 0
0.344 -15.368 0
0.16 -15.282 0
0 -15.2 0
-50 -15.2 0
-50 -0.8 0
0 -0.8 0
0.111 -0.858 0
0.233 -0.917 0
0.368 -0.979 0
0.517 -1.042 0
0.68 -1.108 0
0.859 -1.175 0
1.054 -1.245 0
1.267 -1.317 0
1.497 -1.39 0
1.747 -1.466 0
2.018 -1.543 0
2.31 -1.623 0
2.624 -1.705 0
2.962 -1.788 0
3.325 -1.874 0
3.714 -1.961 0
4.131 -2.051 0
4.575 -2.142 0
5.05 -2.236 0
5.556 -2.332 0
6.094 -2.429 0
6.666 -2.529 0
7.273 -2.63 0
7.916 -2.734 0
8.598 -2.839 0
9.319 -2.947 0
10.081 -3.057 0
10.886 -3.168 0
11.734 -3.282 0
12.629 -3.397 0
13.57 -3.515 0
14.56 -3.634 0
15.601 -3.756 0
15.961 -3.797 0
18.401 -4.39 0
44.398 -2.177 0
44.853 -2.215 0
94.853 -2.215 0
94.853 -16.615 0
44.853 -16.615 0
44.398 -16.577 0
18.401 -18.79 100
15.961 -18.197 100
15.105 -18.099 100
13.681 -17.929 100
12.356 -17.763 100
11.124 -17.6 100
9.982 -17.442 100
8.923 -17.288 100
7.945 -17.138 100
7.044 -16.992 100
6.214 -16.85 100
5.453 -16.712 100
4.755 -16.578 100
4.119 -16.448 100
3.539 -16.322 100
3.013 -16.2 100
2.537 -16.082 100
2.107 -15.968 100
1.722 -15.858 100
1.377 -15.752 100
1.069 -15.65 100
0.796 -15.552 100
0.555 -15.458 100
0.344 -15.368 100
0.16 -15.282 100
0 -15.2 100
-50 -15.2 100
-50 -0.8 100
0 -0.8 100
0.111 -0.858 100
0.233 -0.917 100
0.368 -0.979 100
0.517 -1.042 100
0.68 -1.108 100
0.859 -1.175 100
1.054 -1.245 100
1.267 -1.317 100
1.497 -1.39 100
1.747 -1.466 100
2.018 -1.543 100
2.31 -1.623 100
2.624 -1.705 100
2.962 -1.788 100
3.325 -1.874 100
3.714 -1.961 100
4.131 -2.051 100
4.575 -2.142 100
5.05 -2.236 100
5.556 -2.332 100
6.094 -2.429 100
6.666 -2.529 100
7.273 -2.63 100
7.916 -2.734 100
8.598 -2.839 100
9.319 -2.947 100
10.081 -3.057 100
10.886 -3.168 100
11.734 -3.282 100
12.629 -3.397 100
13.57 -3.515 100
14.56 -3.634 100
15.601 -3.756 100
15.961 -3.797 100
18.401 -4.39 100
44.398 -2.177 100
44.853 -2.215 100
94.853 -2.215 100
94.853 -16.615 100
44.853 -16.615 100
44.398 -16.577 100
44.398 -0.654 0
44.398 0.654 0
44.853 0.615 0
94.853 0.615 0
94.853 -0.615 0
44.853 -0.615 0
44.398 -0.654 100
44.398 0.654 100
44.853 0.615 100
94.853 0.615 100
94.853 -0.615 100
44.853 -0.615 100
-50 0.8 0
-50 15.2 0
0 15.2 0
0.16 15.282 0
0.344 15.368 0
0.555 15.458 0
0.796 15.552 0
1.069 15.65 0
1.377 15.752 0
1.722 15.858 0
2.107 15.968 0
2.537 16.082 0
3.013 16.2 0
3.539 16.322 0
4.119 16.448 0
4.755 16.578 0
5.453 16.712 0
6.214 16.85 0
7.044 16.992 0
7.945 17.138 0
8.923 17.288 0
9.982 17.442 0
11.124 17.6 0
12.356 17.763 0
13.681 17.929 0
15.105 18.099 0
15.961 18.197 0
18.401 18.79 0
44.398 16.577 0
44.853 16.615 0
94.853 16.615 0
94.853 2.215 0
44.853 2.215 0
44.398 2.177 0
18.401 4.39 0
15.961 3.797 0
15.601 3.756 0
14.56 3.634 0
13.57 3.515 0
12.629 3.397 0
11.734 3.282 0
10.886 3.168 0
10.081 3.057 0
9.319 2.947 0
8.598 2.839 0
7.916 2.734 0
7.273 2.63 0
6.666 2.529 0
6.094 2.429 0
5.556 2.332 0
5.05 2.236 0
4.575 2.142 0
4.131 2.051 0
3.714 1.961 0
3.325 1.874 0
2.962 1.788 0
2.624 1.705 0
2.31 1.623 0
2.018 1.543 0
1.747 1.466 0
1.497 1.39 0
1.267 1.317 0
1.054 1.245 0
0.859 1.175 0
0.68 1.108 0
0.517 1.042 0
0.368 0.979 0
0.233 0.917 0
0.111 0.858 0
0 0.8 0
-50 0.8 100
-50 15.2 100
0 15.2 100
0.16 15.282 100
0.344 15.368 100
0.555 15.458 100
0.796 15.552 100
1.069 15.65 100
1.377 15.752 100
1.722 15.858 100
2.107 15.968 100
2.537 16.082 100
3.013 16.2 100
3.539 16.322 100
4.119 16.448 100
4.755 16.578 100
5.453 16.712 100
6.214 16.85 100
7.044 16.992 100
7.945 17.138 100
8.923 17.288 100
9.982 17.442 100
11.124 17.6 100
12.356 17.763 100
13.681 17.929 100
15.105 18.099 100
15.961 18.197 100
18.401 18.79 100
44.398 16.577 100
44.853 16.615 100
94.853 16.615 100
94.853 2.215 100
44.853 2.215 100
44.398 2.177 100
18.401 4.39 100
15.961 3.797 100
15.601 3.756 100
14.56 3.634 100
13.57 3.515 100
12.629 3.397 100
11.734 3.282 100
10.886 3.168 100
10.081 3.057 100
9.319 2.947 100
8.598 2.839 100
7.916 2.734 100
7.273 2.63 100
6.666 2.529 100
6.094 2.429 100
5.556 2.332 100
5.05 2.236 100
4.575 2.142 100
4.131 2.051 100
3.714 1.961 100
3.325 1.874 100
2.962 1.788 100
2.624 1.705 100
2.31 1.623 100
2.018 1.543 100
1.747 1.466 100
1.497 1.39 100
1.267 1.317 100
1.054 1.245 100
0.859 1.175 100
0.68 1.108 100
0.517 1.042 100
0.368 0.979 100
0.233 0.917 100
0.111 0.858 100
0 0.8 100
3 18 47 19
3 19 46 20
3 24 23 25
3 21 25 22
3 22 25 23
3 28 25 29
3 29 25 30
3 30 25 31
3 31 25 32
3 32 25 33
3 33 25 34
3 34 25 35
3 35 25 36
3 36 25 37
3 37 25 38
3 38 25 39
3 39 25 40
3 40 25 41
3 41 25 42
3 42 25 43
3 43 25 44
3 44 25 45
3 45 25 46
3 21 46 25
3 20 46 21
3 27 25 28
3 26 25 27
3 46 19 47
3 17 47 18
3 47 17 48
3 16 48 17
3 15 48 16
3 48 15 49
3 14 49 15
3 49 14 50
3 13 50 14
3 50 13 51
3 12 51 13
3 11 51 12
3 51 11 52
3 10 52 11
3 52 10 53
3 9 53 10
3 53 9 54
3 8 54 9
3 54 8 55
3 55 8 56
3 7 56 8
3 56 7 57
3 6 57 7
3 57 6 58
3 5 58 6
3 58 5 59
3 4 59 5
3 59 4 60
3 3 60 4
3 60 3 61
3 61 3 62
3 2 62 3
3 62 2 63
3 1 63 2
3 0 63 1
3 64 69 65
3 68 65 69
3 66 65 67
3 67 65 68
3 63 69 64
3 63 0 69
3 88 117 89
3 89 116 90
3 94 93 95
3 91 95 92
3 92 95 93
3 98 95 99
3 99 95 100
3 100 95 101
3 101 95 102
3 102 95 103
3 103 95 104
3 104 95 105
3 105 95 106
3 106 95 107
3 107 95 108
3 108 95 109
3 109 95 110
3 110 95 111
3 111 95 112
3 112 95 113
3 113 95 114
3 114 95 115
3 115 95 116
3 91 116 95
3 90 116 91
3 97 95 98
3 96 95 97
3 116 89 117
3 87 117 88
3 117 87 118
3 86 118 87
3 85 118 86
3 118 85 119
3 84 119 85
3 119 84 120
3 83 120 84
3 120 83 121
3 82 121 83
3 81 121 82
3 121 81 122
3 80 122 81
3 122 80 123
3 79 123 80
3 123 79 124
3 78 124 79
3 124 78 125
3 125 78 126
3 77 126 78
3 126 77 127
3 76 127 77
3 127 76 128
3 75 128 76
3 128 75 129
3 74 129 75
3 129 74 130
3 73 130 74
3 130 73 131
3 131 73 132
3 72 132 73
3 132 72 133
3 71 133 72
3 70 133 71
3 134 139 135
3 138 135 139
3 136 135 137
3 137 135 138
3 133 139 134
3 133 70 139
3 141 140 142
3 143 142 144
3 144 142 145
3 142 140 145
3 147 146 148
3 149 148 150
3 150 148 151
3 148 146 151
3 173 191 174
3 153 152 154
3 155 154 156
3 156 154 157
3 157 154 158
3 164 200 165
3 166 198 167
3 196 169 197
3 195 170 196
3 194 171 195
3 193 171 194
3 171 193 172
3 192 172 193
3 172 192 173
3 191 173 192
3 189 175 190
3 175 189 176
3 188 176 189
3 187 176 188
3 176 187 177
3 186 177 187
3 177 186 178
3 179 186 180
3 185 180 186
3 178 186 179
3 184 180 185
3 180 184 181
3 182 181 183
3 183 181 184
3 174 190 175
3 190 174 191
3 170 195 171
3 169 196 170
3 168 197 169
3 197 168 198
3 167 198 168
3 198 166 199
3 165 199 166
3 199 165 200
3 200 164 201
3 163 201 164
3 162 201 163
3 201 162 202
3 161 202 162
3 160 202 161
3 202 160 203
3 159 203 160
3 158 203 159
3 154 203 158
3 203 154 204
3 204 154 205
3 205 154 206
3 206 154 207
3 207 154 208
3 208 154 209
3 209 154 210
3 210 154 211
3 211 154 212
3 212 154 213
3 213 154 214
3 214 154 215
3 215 154 216
3 216 154 217
3 217 154 218
3 218 154 219
3 219 154 220
3 220 154 221
3 152 221 154
3 243 261 244
3 223 222 224
3 225 224 226
3 226 224 227
3 227 224 228
3 234 270 235
3 236 268 237
3 266 239 267
3 265 240 266
3 264 241 265
3 263 241 264
3 241 263 242
3 262 242 263
3 242 262 243
3 261 243 262
3 259 245 260
3 245 259 246
3 258 246 259
3 257 246 258
3 246 257 247
3 256 247 257
3 247 256 248
3 249 256 250
3 255 250 256
3 248 256 249
3 254 250 255
3 250 254 251
3 252 251 253
3 253 251 254
3 244 260 245
3 260 244 261
3 240 265 241
3 239 266 240
3 238 267 239
3 267 238 268
3 237 268 238
3 268 236 269
3 235 269 236
3 269 235 270
3 270 234 271
3 233 271 234
3 232 271 233
3 271 232 272
3 231 272 232
3 230 272 231
3 272 230 273
3 229 273 230
3 228 273 229
3 224 273 228
3 273 224 274
3 274 224 275
3 275 224 276
3 276 224 277
3 277 224 278
3 278 224 279
3 279 224 280
3 280 224 281
3 281 224 282
3 282 224 283
3 283 224 284
3 284 224 285
3 285 224 286
3 286 224 287
3 287 224 288
3 288 224 289
3 289 224 290
3 290 224 291
3 222 291 224
3 0 1 71
3 71 70 0
3 1 2 72
3 72 71 1
3 2 3 73
3 73 72 2
3 3 4 74
3 74 73 3
3 4 5 75
3 75 74 4
3 5 6 76
3 76 75 5
3 6 7 77
3 77 76 6
3 7 8 78
3 78 77 7
3 8 9 79
3 79 78 8
3 9 10 80
3 80 79 9
3 10 11 81
3 81 80 10
3 11 12 82
3 82 81 11
3 12 13 83
3 83 82 12
3 13 14 84
3 84 83 13
3 14 15 85
3 85 84 14
3 15 16 86
3 86 85 15
3 16 17 87
3 87 86 16
3 17 18 88
3 88 87 17
3 18 19 89
3 89 88 18
3 19 20 90
3 90 89 19
3 20 21 91
3 91 90 20
3 21 22 92
3 92 91 21
3 22 23 93
3 93 92 22
3 23 24 94
3 94 93 23
3 24 25 95
3 95 94 24
3 25 26 96
3 96 95 25
3 26 27 97
3 97 96 26
3 27 28 98
3 98 97 27
3 28 29 99
3 99 98 28
3 29 30 100
3 100 99 29
3 30 31 101
3 101 100 30
3 31 32 102
3 102 101 31
3 32 33 103
3 103 102 32
3 33 34 104
3 104 103 33
3 34 35 105
3 105 104 34
3 35 36 106
3 106 105 35
3 36 37 107
3 107 106 36
3 37 38 108
3 108 107 37
3 38 39 109
3 109 108 38
3 39 40 110
3 110 109 39
3 40 41 111
3 111 110 40
3 41 42 112
3 112 111 41
3 42 43 113
3 113 112 42
3 43 44 114
3 114 113 43
3 44 45 115
3 115 114 44
3 45 46 116
3 116 115 45
3 46 47 117
3 117 116 46
3 47 48 118
3 118 117 47
3 48 49 119
3 119 118 48
3 49 50 120
3 120 119 49
3 50 51 121
3 121 120 50
3 51 52 122
3 122 121 51
3 52 53 123
3 123 122 52
3 53 54 124
3 124 123 53
3 54 55 125
3 125 124 54
3 55 56 126
3 126 125 55
3 56 57 127
3 127 126 56
3 57 58 128
3 128 127 57
3 58 59 129
3 129 128 58
3 59 60 130
3 130 129 59
3 60 61 131
3 131 130 60
3 61 62 132
3 132 131 61
3 62 63 133
3 133 132 62
3 63 64 134
3 134 133 63
3 64 65 135
3 135 134 64
3 65 66 136
3 136 135 65
3 66 67 137
3 137 136 66
3 67 68 138
3 138 137 67
3 68 69 139
3 139 138 68
3 69 0 70
3 70 139 69
3 140 141 147
3 147 146 140
3 141 142 148
3 148 147 141
3 142 143 149
3 149 148 142
3 143 144 150
3 150 149 143
3 144 145 151
3 151 150 144
3 145 140 146
3 146 151 145
3 152 153 223
3 223 222 152
3 153 154 224
3 224 223 153
3 154 155 225
3 225 224 154
3 155 156 226
3 226 225 155
3 156 157 227
3 227 226 156
3 157 158 228
3 228 227 157
3 158 159 229
3 229 228 158
3 159 160 230
3 230 229 159
3 160 161 231
3 231 230 160
3 161 162 232
3 232 231 161
3 162 163 233
3 233 232 162
3 163 164 234
3 234 233 163
3 164 165 235
3 235 234 164
3 165 166 236
3 236 235 165
3 166 167 237
3 237 236 166
3 167 168 238
3 238 237 167
3 168 169 239
3 239 238 168
3 169 170 240
3 240 239 169
3 170 171 241
3 241 240 170
3 171 172 242
3 242 241 171
3 172 173 243
3 243 242 172
3 173 174 244
3 244 243 173
3 174 175 245
3 245 244 174
3 175 176 246
3 246 245 175
3 176 177 247
3 247 246 176
3 177 178 248
3 248 247 177
3 178 179 249
3 249 248 178
3 179 180 250
3 250 249 179
3 180 181 251
3 251 250 180
3 181 182 252
3 252 251 181
3 182 183 253
3 253 252 182
3 183 184 254
3 254 253 183
3 184 185 255
3 255 254 184
3 185 186 256
3 256 255 185
3 186 187 257
3 257 256 186
3 187 188 258
3 258 257 187
3 188 189 259
3 259 258 188
3 189 190 260
3 260 259 189
3 190 191 261
3 261 260 190
3 191 192 262
3 262 261 191
3 192 193 263
3 263 262 192
3 193 194 264
3 264 263 193
3 194 195 265
3 265 264 194
3 195 196 266
3 266 265 195
3 196 197 267
3 267 266 196
3 197 198 268
3 268 267 197
3 198 199 269
3 269 268 198
3 199 200 270
3 270 269 199
3 200 201 271
3 271 270 200
3 201 202 272
3 272 271 201
3 202 203 273
3 273 272 202
3 203 204 274
3 274 273 203
3 204 205 275
3 275 274 204
3 205 206 276
3 276 275 205
3 206 207 277
3 277 276 206
3 207 208 278
3 278 277 207
3 208 209 279
3 279 278 208
3 209 210 280
3 280 279 209
3 210 211 281
3 281 280 210
3 211 212 282
3 282 281 211
3 212 213 283
3 283 282 212
3 213 214 284
3 284 283 213
3 214 215 285
3 285 284 214
3 215 216 286
3 286 285 215
3 216 217 287
3 287 286 216
3 217 218 288
3 288 287 217
3 218 219 289
3 289 288 218
3 219 220 290
3 290 289 219
3 220 221 291
3 291 290 220
3 221 152 222
3 222 291 221
