ply
format ascii 1.0
element vertex 120
property float x
property float y
property float z
element face 236
property list uchar int vertex_indices
end_header
44.398 -16.577 0
44.853 -16.615 0
94.853 -16.615 0
94.853 16.615 0
44.853 16.615 0
44.398 16.577 0
18.401 18.79 0
15.961 18.197 0
15.105 18.099 0
13.681 17.929 0
12.356 17.763 0
11.124 17.6 0
9.982 17.442 0
8.923 17.288 0
7.945 17.138 0
7.044 16.992 0
6.214 16.85 0
5.453 16.712 0
4.755 16.578 0
4.119 16.448 0
3.539 16.322 0
3.013 16.2 0
2.537 16.082 0
2.107 15.968 0
1.722 15.858 0
1.377 15.752 0
1.069 15.65 0
0.796 15.552 0
0.555 15.458 0
0.344 15.368 0
0.16 15.282 0
0 15.2 0
-50 15.2 0
-50 -15.2 0
0 -15.2 0
0.16 -15.282 0
0.344 -15.368 0
0.555 -15.458 0
0.796 -15.552 0
1.069 -15.65 0
1.377 -15.752 0
1.722 -15.858 0
2.107 -15.968 0
2.537 -16.082 0
3.013 -16.2 0
3.539 -16.322 0
4.119 -16.448 0
4.755 -16.578 0
5.453 -16.712 0
6.214 -16.85 0
7.044 -16.992 0
7.945 -17.138 0
8.923 -17.288 0
9.982 -17.442 0
11.124 -17.6 0
12.356 -17.763 0
13.681 -17.929 0
15.105 -18.099 0
15.961 -18.197 0
18.401 -18.79 0
44.398 -16.577 100
44.853 -16.615 100
94.853 -16.615 100
94.853 16.615 100
44.853 16.615 100
44.398 16.577 100
18.401 18.79 100
15.961 18.197 100
15.105 18.099 100
13.681 17.929 100
12.356 17.763 100
11.124 17.6 100
9.982 17.442 100
8.923 17.288 100
7.945 17.138 100
7.044 16.992 100
6.214 16.85 100
5.453 16.712 100
4.755 16.578 100
4.119 16.448 100
3.539 16.322 100
3.013 16.2 100
2.537 16.082 100
2.107 15.968 100
1.722 15.858 100
1.377 15.752 100
1.069 15.65 100
0.796 15.552 100
0.555 15.458 100
0.344 15.368 100
0.16 15.282 100
0 15.2 100
-50 15.2 100
-50 -15.2 100
0 -15.2 100
0.16 -15.282 100
0.344 -15.368 100
0.555 -15.458 100
0.796 -15.552 100
1.069 -15.65 100
1.377 -15.752 100
1.722 -15.858 100
2.107 -15.968 100
2.537 -16.082 100
3.013 -16.2 100
3.539 -16.322 100
4.119 -16.448 100
4.755 -16.578 100
5.453 -16.712 100
6.214 -16.85 100
7.044 -16.992 100
7.945 -17.138 100
8.923 -17.288 100
9.982 -17.442 100
11.124 -17.6 100
12.356 -17.763 100
13.681 -17.929 100
15.105 -18.099 100
15.961 -18.197 100
18.401 -18.79 100
3 25 22 21
3 25 21 20
3 26 25 28
3 24 23 25
3 25 23 22
3 20 19 25
3 38 16 15
3 39 15 14
3 40 14 13
3 18 17 25
3 16 25 17
3 25 16 37
3 18 25 19
3 41 13 12
3 28 27 26
3 29 28 30
3 30 28 31
3 31 28 32
3 28 33 32
3 28 34 33
3 34 28 35
3 35 28 36
3 37 36 28
3 25 37 28
3 38 37 16
3 38 15 39
3 40 39 14
3 13 41 40
3 12 11 41
3 8 7 46
3 7 6 47
3 43 11 10
3 44 10 9
3 8 45 9
3 48 6 5
3 2 51 3
3 53 1 0
3 1 52 2
3 5 4 49
3 50 4 3
3 59 58 55
3 56 58 57
3 59 54 0
3 11 43 42
3 10 44 43
3 9 45 44
3 46 7 47
3 6 48 47
3 45 8 46
3 49 4 50
3 49 48 5
3 55 54 59
3 58 56 55
3 3 51 50
3 52 1 53
3 52 51 2
3 54 53 0
3 11 42 41
3 85 82 81
3 85 81 80
3 86 85 88
3 84 83 85
3 85 83 82
3 80 79 85
3 98 76 75
3 99 75 74
3 100 74 73
3 78 77 85
3 76 85 77
3 85 76 97
3 78 85 79
3 101 73 72
3 88 87 86
3 89 88 90
3 90 88 91
3 91 88 92
3 88 93 92
3 88 94 93
3 94 88 95
3 95 88 96
3 97 96 88
3 85 97 88
3 98 97 76
3 98 75 99
3 100 99 74
3 73 101 100
3 72 71 101
3 68 67 106
3 67 66 107
3 103 71 70
3 104 70 69
3 68 105 69
3 108 66 65
3 62 111 63
3 113 61 60
3 61 112 62
3 65 64 109
3 110 64 63
3 119 118 115
3 116 118 117
3 119 114 60
3 71 103 102
3 70 104 103
3 69 105 104
3 106 67 107
3 66 108 107
3 105 68 106
3 109 64 110
3 109 108 65
3 115 114 119
3 118 116 115
3 63 111 110
3 112 61 113
3 112 111 62
3 114 113 60
3 71 102 101
3 0 1 61
3 61 60 0
3 1 2 62
3 62 61 1
3 2 3 63
3 63 62 2
3 3 4 64
3 64 63 3
3 4 5 65
3 65 64 4
3 5 6 66
3 66 65 5
3 6 7 67
3 67 66 6
3 7 8 68
3 68 67 7
3 8 9 69
3 69 68 8
3 9 10 70
3 70 69 9
3 10 11 71
3 71 70 10
3 11 12 72
3 72 71 11
3 12 13 73
3 73 72 12
3 13 14 74
3 74 73 13
3 14 15 75
3 75 74 14
3 15 16 76
3 76 75 15
3 16 17 77
3 77 76 16
3 17 18 78
3 78 77 17
3 18 19 79
3 79 78 18
3 19 20 80
3 80 79 19
3 20 21 81
3 81 80 20
3 21 22 82
3 82 81 21
3 22 23 83
3 83 82 22
3 23 24 84
3 84 83 23
3 24 25 85
3 85 84 24
3 25 26 86
3 86 85 25
3 26 27 87
3 87 86 26
3 27 28 88
3 88 87 27
3 28 29 89
3 89 88 28
3 29 30 90
3 90 89 29
3 30 31 91
3 91 90 30
3 31 32 92
3 92 91 31
3 32 33 93
3 93 92 32
3 33 34 94
3 94 93 33
3 34 35 95
3 95 94 34
3 35 36 96
3 96 95 35
3 36 37 97
3 97 96 36
3 37 38 98
3 98 97 37
3 38 39 99
3 99 98 38
3 39 40 100
3 100 99 39
3 40 41 101
3 101 100 40
3 41 42 102
3 102 101 41
3 42 43 103
3 103 102 42
3 43 44 104
3 104 103 43
3 44 45 105
3 105 104 44
3 45 46 106
3 106 105 45
3 46 47 107
3 107 106 46
3 47 48 108
3 108 107 47
3 48 49 109
3 109 108 48
3 49 50 110
3 110 109 49
3 50 51 111
3 111 110 50
3 51 52 112
3 112 111 51
3 52 53 113
3 113 112 52
3 53 54 114
3 114 113 53
3 54 55 115
3 115 114 54
3 55 56 116
3 116 115 55
3 56 57 117
3 117 116 56
3 57 58 118
3 118 117 57
3 58 59 119
3 119 118 58
3 59 0 60
3 60 119 59
