ply
format ascii 1.0
element vertex 180
property float x
property float y
property float z
element face 348
property list uchar int vertex_indices
end_header
45.975 -7.234 0
45.975 -2.215 0
44.853 -2.215 0
44.398 -2.177 0
18.401 -4.39 0
15.961 -3.797 0
15.601 -3.756 0
14.56 -3.634 0
13.57 -3.515 0
12.629 -3.397 0
11.734 -3.282 0
10.886 -3.168 0
10.081 -3.057 0
9.319 -2.947 0
8.598 -2.839 0
7.916 -2.734 0
7.273 -2.63 0
6.666 -2.529 0
6.094 -2.429 0
5.556 -2.332 0
5.05 -2.236 0
4.575 -2.142 0
4.131 -2.051 0
3.714 -1.961 0
3.325 -1.874 0
2.962 -1.788 0
2.624 -1.705 0
2.31 -1.623 0
2.018 -1.543 0
1.747 -1.466 0
1.497 -1.39 0
1.267 -1.317 0
1.054 -1.245 0
0.859 -1.175 0
0.68 -1.108 0
0.517 -1.042 0
0.368 -0.979 0
0.233 -0.917 0
0.111 -0.858 0
0 -0.8 0
-1.121 -0.8 0
-1.121 -7.234 0
45.975 -7.234 100
45.975 -2.215 100
44.853 -2.215 100
44.398 -2.177 100
18.401 -4.39 100
15.961 -3.797 100
15.601 -3.756 100
14.56 -3.634 100
13.57 -3.515 100
12.629 -3.397 100
11.734 -3.282 100
10.886 -3.168 100
10.081 -3.057 100
9.319 -2.947 100
8.598 -2.839 100
7.916 -2.734 100
7.273 -2.63 100
6.666 -2.529 100
6.094 -2.429 100
5.556 -2.332 100
5.05 -2.236 100
4.575 -2.142 100
4.131 -2.051 100
3.714 -1.961 100
3.325 -1.874 100
2.962 -1.788 100
2.624 -1.705 100
2.31 -1.623 100
2.018 -1.543 100
1.747 -1.466 100
1.497 -1.39 100
1.267 -1.317 100
1.054 -1.245 100
0.859 -1.175 100
0.68 -1.108 100
0.517 -1.042 100
0.368 -0.979 100
0.233 -0.917 100
0.111 -0.858 100
0 -0.8 100
-1.121 -0.8 100
-1.121 -7.234 100
44.853 -0.615 0
45.975 -0.615 0
45.975 0.615 0
44.853 0.615 0
44.398 0.654 0
44.398 -0.654 0
44.853 -0.615 100
45.975 -0.615 100
45.975 0.615 100
44.853 0.615 100
44.398 0.654 100
44.398 -0.654 100
0 0.8 0
0.111 0.858 0
0.233 0.917 0
0.368 0.979 0
0.517 1.042 0
0.68 1.108 0
0.859 1.175 0
1.054 1.245 0
1.267 1.317 0
1.497 1.39 0
1.747 1.466 0
2.018 1.543 0
2.31 1.623 0
2.624 1.705 0
2.962 1.788 0
3.325 1.874 0
3.714 1.961 0
4.131 2.051 0
4.575 2.142 0
5.05 2.236 0
5.556 2.332 0
6.094 2.429 0
6.666 2.529 0
7.273 2.63 0
7.916 2.734 0
8.598 2.839 0
9.319 2.947 0
10.081 3.057 0
10.886 3.168 0
11.734 3.282 0
12.629 3.397 0
13.57 3.515 0
14.56 3.634 0
15.601 3.756 0
15.961 3.797 0
18.401 4.39 0
44.398 2.177 0
44.853 2.215 0
45.975 2.215 0
45.975 7.234 0
-1.121 7.234 0
-1.121 0.8 0
0 0.8 100
0.111 0.858 100
0.233 0.917 100
0.368 0.979 100
0.517 1.042 100
0.68 1.108 100
0.859 1.175 100
1.054 1.245 100
1.267 1.317 100
1.497 1.39 100
1.747 1.466 100
2.018 1.543 100
2.31 1.623 100
2.624 1.705 100
2.962 1.788 100
3.325 1.874 100
3.714 1.961 100
4.131 2.051 100
4.575 2.142 100
5.05 2.236 100
5.556 2.332 100
6.094 2.429 100
6.666 2.529 100
7.273 2.63 100
7.916 2.734 100
8.598 2.839 100
9.319 2.947 100
10.081 3.057 100
10.886 3.168 100
11.734 3.282 100
12.629 3.397 100
13.57 3.515 100
14.56 3.634 100
15.601 3.756 100
15.961 3.797 100
18.401 4.39 100
44.398 2.177 100
44.853 2.215 100
45.975 2.215 100
45.975 7.234 100
-1.121 7.234 100
-1.121 0.8 100
3 0 15 14
3 15 0 16
3 13 12 0
3 14 13 0
3 0 12 11
3 20 19 0
3 17 16 0
3 18 17 0
3 19 18 0
3 0 21 20
3 5 4 1
3 1 3 2
3 3 1 4
3 5 1 6
3 8 0 9
3 9 0 10
3 6 1 0
3 6 0 7
3 7 0 8
3 0 11 10
3 32 0 33
3 29 0 30
3 30 0 31
3 31 0 32
3 41 37 0
3 35 34 37
3 36 35 37
3 34 33 0
3 28 0 29
3 41 38 37
3 25 24 0
3 22 21 0
3 23 22 0
3 24 23 0
3 26 0 27
3 27 0 28
3 38 41 39
3 41 40 39
3 25 0 26
3 0 37 34
3 42 57 56
3 57 42 58
3 55 54 42
3 56 55 42
3 42 54 53
3 62 61 42
3 59 58 42
3 60 59 42
3 61 60 42
3 42 63 62
3 47 46 43
3 43 45 44
3 45 43 46
3 47 43 48
3 50 42 51
3 51 42 52
3 48 43 42
3 48 42 49
3 49 42 50
3 42 53 52
3 74 42 75
3 71 42 72
3 72 42 73
3 73 42 74
3 83 79 42
3 77 76 79
3 78 77 79
3 76 75 42
3 70 42 71
3 83 80 79
3 67 66 42
3 64 63 42
3 65 64 42
3 66 65 42
3 68 42 69
3 69 42 70
3 80 83 81
3 83 82 81
3 67 42 68
3 42 79 76
3 84 89 85
3 85 89 86
3 86 88 87
3 88 86 89
3 90 95 91
3 91 95 92
3 92 94 93
3 94 92 95
3 96 137 136
3 135 134 96
3 136 135 96
3 96 134 133
3 96 133 97
3 97 131 130
3 97 132 131
3 97 133 132
3 97 130 129
3 128 127 97
3 97 126 125
3 126 97 127
3 97 125 124
3 128 97 129
3 123 122 97
3 124 123 97
3 120 119 97
3 121 120 97
3 122 121 97
3 97 119 118
3 118 117 97
3 115 114 97
3 116 115 97
3 117 116 97
3 100 98 101
3 98 100 99
3 111 97 112
3 114 113 97
3 109 97 110
3 106 97 107
3 107 97 108
3 108 97 109
3 105 104 102
3 105 102 97
3 102 98 97
3 103 102 104
3 97 106 105
3 98 102 101
3 97 111 110
3 112 97 113
3 138 179 178
3 177 176 138
3 178 177 138
3 138 176 175
3 138 175 139
3 139 173 172
3 139 174 173
3 139 175 174
3 139 172 171
3 170 169 139
3 139 168 167
3 168 139 169
3 139 167 166
3 170 139 171
3 165 164 139
3 166 165 139
3 162 161 139
3 163 162 139
3 164 163 139
3 139 161 160
3 160 159 139
3 157 156 139
3 158 157 139
3 159 158 139
3 142 140 143
3 140 142 141
3 153 139 154
3 156 155 139
3 151 139 152
3 148 139 149
3 149 139 150
3 150 139 151
3 147 146 144
3 147 144 139
3 144 140 139
3 145 144 146
3 139 148 147
3 140 144 143
3 139 153 152
3 154 139 155
3 0 1 43
3 43 42 0
3 1 2 44
3 44 43 1
3 2 3 45
3 45 44 2
3 3 4 46
3 46 45 3
3 4 5 47
3 47 46 4
3 5 6 48
3 48 47 5
3 6 7 49
3 49 48 6
3 7 8 50
3 50 49 7
3 8 9 51
3 51 50 8
3 9 10 52
3 52 51 9
3 10 11 53
3 53 52 10
3 11 12 54
3 54 53 11
3 12 13 55
3 55 54 12
3 13 14 56
3 56 55 13
3 14 15 57
3 57 56 14
3 15 16 58
3 58 57 15
3 16 17 59
3 59 58 16
3 17 18 60
3 60 59 17
3 18 19 61
3 61 60 18
3 19 20 62
3 62 61 19
3 20 21 63
3 63 62 20
3 21 22 64
3 64 63 21
3 22 23 65
3 65 64 22
3 23 24 66
3 66 65 23
3 24 25 67
3 67 66 24
3 25 26 68
3 68 67 25
3 26 27 69
3 69 68 26
3 27 28 70
3 70 69 27
3 28 29 71
3 71 70 28
3 29 30 72
3 72 71 29
3 30 31 73
3 73 72 30
3 31 32 74
3 74 73 31
3 32 33 75
3 75 74 32
3 33 34 76
3 76 75 33
3 34 35 77
3 77 76 34
3 35 36 78
3 78 77 35
3 36 37 79
3 79 78 36
3 37 38 80
3 80 79 37
3 38 39 81
3 81 80 38
3 39 40 82
3 82 81 39
3 40 41 83
3 83 82 40
3 41 0 42
3 42 83 41
3 84 85 91
3 91 90 84
3 85 86 92
3 92 91 85
3 86 87 93
3 93 92 86
3 87 88 94
3 94 93 87
3 88 89 95
3 95 94 88
3 89 84 90
3 90 95 89
3 96 97 139
3 139 138 96
3 97 98 140
3 140 139 97
3 98 99 141
3 141 140 98
3 99 100 142
3 142 141 99
3 100 101 143
3 143 142 100
3 101 102 144
3 144 143 101
3 102 103 145
3 145 144 102
3 103 104 146
3 146 145 103
3 104 105 147
3 147 146 104
3 105 106 148
3 148 147 105
3 106 107 149
3 149 148 106
3 107 108 150
3 150 149 107
3 108 109 151
3 151 150 108
3 109 110 152
3 152 151 109
3 110 111 153
3 153 152 110
3 111 112 154
3 154 153 111
3 112 113 155
3 155 154 112
3 113 114 156
3 156 155 113
3 114 115 157
3 157 156 114
3 115 116 158
3 158 157 115
3 116 117 159
3 159 158 116
3 117 118 160
3 160 159 117
3 118 119 161
3 161 160 118
3 119 120 162
3 162 161 119
3 120 121 163
3 163 162 120
3 121 122 164
3 164 163 121
3 122 123 165
3 165 164 122
3 123 124 166
3 166 165 123
3 124 125 167
3 167 166 124
3 125 126 168
3 168 167 125
3 126 127 169
3 169 168 126
3 127 128 170
3 170 169 127
3 128 129 171
3 171 170 128
3 129 130 172
3 172 171 129
3 130 131 173
3 173 172 130
3 131 132 174
3 174 173 131
3 132 133 175
3 175 174 132
3 133 134 176
3 176 175 133
3 134 135 177
3 177 176 134
3 135 136 178
3 178 177 135
3 136 137 179
3 179 178 136
3 137 96 138
3 138 179 137
