ply
format ascii 1.0
element vertex 120
property float x
property float y
property float z
element face 236
property list uchar int vertex_indices
end_header
18.401 -18.79 0
15.961 -18.197 0
15.105 -18.099 0
13.681 -17.929 0
12.356 -17.763 0
11.124 -17.6 0
9.982 -17.442 0
8.923 -17.288 0
7.945 -17.138 0
7.044 -16.992 0
6.214 -16.85 0
5.453 -16.712 0
4.755 -16.578 0
4.119 -16.448 0
3.539 -16.322 0
3.013 -16.2 0
2.537 -16.082 0
2.107 -15.968 0
1.722 -15.858 0
1.377 -15.752 0
1.069 -15.65 0
0.796 -15.552 0
0.555 -15.458 0
0.344 -15.368 0
0.16 -15.282 0
0 -15.2 0
-50 -15.2 0
-50 15.2 0
0 15.2 0
0.16 15.282 0
0.344 15.368 0
0.555 15.458 0
0.796 15.552 0
1.069 15.65 0
1.377 15.752 0
1.722 15.858 0
2.107 15.968 0
2.537 16.082 0
3.013 16.2 0
3.539 16.322 0
4.119 16.448 0
4.755 16.578 0
5.453 16.712 0
6.214 16.85 0
7.044 16.992 0
7.945 17.138 0
8.923 17.288 0
9.982 17.442 0
11.124 17.6 0
12.356 17.763 0
13.681 17.929 0
15.105 18.099 0
15.961 18.197 0
18.401 18.79 0
44.398 16.577 0
44.853 16.615 0
94.853 16.615 0
94.853 -16.615 0
44.853 -16.615 0
44.398 -16.577 0
18.401 -18.79 100
15.961 -18.197 100
15.105 -18.099 100
13.681 -17.929 100
12.356 -17.763 100
11.124 -17.6 100
9.982 -17.442 100
8.923 -17.288 100
7.945 -17.138 100
7.044 -16.992 100
6.214 -16.85 100
5.453 -16.712 100
4.755 -16.578 100
4.119 -16.448 100
3.539 -16.322 100
3.013 -16.2 100
2.537 -16.082 100
2.107 -15.968 100
1.722 -15.858 100
1.377 -15.752 100
1.069 -15.65 100
0.796 -15.552 100
0.555 -15.458 100
0.344 -15.368 100
0.16 -15.282 100
0 -15.2 100
-50 -15.2 100
-50 15.2 100
0 15.2 100
0.16 15.282 100
0.344 15.368 100
0.555 15.458 100
0.796 15.552 100
1.069 15.65 100
1.377 15.752 100
1.722 15.858 100
2.107 15.968 100
2.537 16.082 100
3.013 16.2 100
3.539 16.322 100
4.119 16.448 100
4.755 16.578 100
5.453 16.712 100
6.214 16.85 100
7.044 16.992 100
7.945 17.138 100
8.923 17.288 100
9.982 17.442 100
11.124 17.6 100
12.356 17.763 100
13.681 17.929 100
15.105 18.099 100
15.961 18.197 100
18.401 18.79 100
44.398 16.577 100
44.853 16.615 100
94.853 16.615 100
94.853 -16.615 100
44.853 -16.615 100
44.398 -16.577 100
3 40 12 41
3 39 13 40
3 24 23 25
3 21 25 22
3 22 25 23
3 20 25 21
3 19 25 20
3 18 25 19
3 17 25 18
3 16 25 17
3 25 16 28
3 36 28 37
3 33 28 34
3 31 28 32
3 29 28 30
3 30 28 31
3 32 28 33
3 34 28 35
3 35 28 36
3 16 37 28
3 15 37 16
3 37 15 38
3 14 38 15
3 38 14 39
3 27 25 28
3 13 39 14
3 26 25 27
3 12 40 13
3 11 41 12
3 41 11 42
3 10 42 11
3 42 10 43
3 9 43 10
3 43 9 44
3 8 44 9
3 44 8 45
3 7 45 8
3 45 7 46
3 6 46 7
3 46 6 47
3 5 47 6
3 47 5 48
3 4 48 5
3 48 4 49
3 3 49 4
3 49 3 50
3 2 50 3
3 50 2 51
3 1 51 2
3 51 1 52
3 0 52 1
3 52 0 53
3 53 0 54
3 55 54 58
3 56 55 57
3 57 55 58
3 58 54 59
3 54 0 59
3 100 72 101
3 99 73 100
3 84 83 85
3 81 85 82
3 82 85 83
3 80 85 81
3 79 85 80
3 78 85 79
3 77 85 78
3 76 85 77
3 85 76 88
3 96 88 97
3 93 88 94
3 91 88 92
3 89 88 90
3 90 88 91
3 92 88 93
3 94 88 95
3 95 88 96
3 76 97 88
3 75 97 76
3 97 75 98
3 74 98 75
3 98 74 99
3 87 85 88
3 73 99 74
3 86 85 87
3 72 100 73
3 71 101 72
3 101 71 102
3 70 102 71
3 102 70 103
3 69 103 70
3 103 69 104
3 68 104 69
3 104 68 105
3 67 105 68
3 105 67 106
3 66 106 67
3 106 66 107
3 65 107 66
3 107 65 108
3 64 108 65
3 108 64 109
3 63 109 64
3 109 63 110
3 62 110 63
3 110 62 111
3 61 111 62
3 111 61 112
3 60 112 61
3 112 60 113
3 113 60 114
3 115 114 118
3 116 115 117
3 117 115 118
3 118 114 119
3 114 60 119
3 0 1 61
3 61 60 0
3 1 2 62
3 62 61 1
3 2 3 63
3 63 62 2
3 3 4 64
3 64 63 3
3 4 5 65
3 65 64 4
3 5 6 66
3 66 65 5
3 6 7 67
3 67 66 6
3 7 8 68
3 68 67 7
3 8 9 69
3 69 68 8
3 9 10 70
3 70 69 9
3 10 11 71
3 71 70 10
3 11 12 72
3 72 71 11
3 12 13 73
3 73 72 12
3 13 14 74
3 74 73 13
3 14 15 75
3 75 74 14
3 15 16 76
3 76 75 15
3 16 17 77
3 77 76 16
3 17 18 78
3 78 77 17
3 18 19 79
3 79 78 18
3 19 20 80
3 80 79 19
3 20 21 81
3 81 80 20
3 21 22 82
3 82 81 21
3 22 23 83
3 83 82 22
3 23 24 84
3 84 83 23
3 24 25 85
3 85 84 24
3 25 26 86
3 86 85 25
3 26 27 87
3 87 86 26
3 27 28 88
3 88 87 27
3 28 29 89
3 89 88 28
3 29 30 90
3 90 89 29
3 30 31 91
3 91 90 30
3 31 32 92
3 92 91 31
3 32 33 93
3 93 92 32
3 33 34 94
3 94 93 33
3 34 35 95
3 95 94 34
3 35 36 96
3 96 95 35
3 36 37 97
3 97 96 36
3 37 38 98
3 98 97 37
3 38 39 99
3 99 98 38
3 39 40 100
3 100 99 39
3 40 41 101
3 101 100 40
3 41 42 102
3 102 101 41
3 42 43 103
3 103 102 42
3 43 44 104
3 104 103 43
3 44 45 105
3 105 104 44
3 45 46 106
3 106 105 45
3 46 47 107
3 107 106 46
3 47 48 108
3 108 107 47
3 48 49 109
3 109 108 48
3 49 50 110
3 110 109 49
3 50 51 111
3 111 110 50
3 51 52 112
3 112 111 51
3 52 53 113
3 113 112 52
3 53 54 114
3 114 113 53
3 54 55 115
3 115 114 54
3 55 56 116
3 116 115 55
3 56 57 117
3 117 116 56
3 57 58 118
3 118 117 57
3 58 59 119
3 119 118 58
3 59 0 60
3 60 119 59
