ply
format ascii 1.0
element vertex 156
property float x
property float y
property float z
element face 280
property list uchar int vertex_indices
end_header
44.853 -16.615 0
44.398 -16.577 0
44.398 13.746 0
44.853 13.785 0
44.853 -16.615 100
44.398 -16.577 100
44.398 13.746 100
44.853 13.785 100
44.853 -13.785 0
44.398 -13.746 0
44.398 16.577 0
44.853 16.615 0
44.853 -13.785 100
44.398 -13.746 100
44.398 16.577 100
44.853 16.615 100
18.401 -18.79 0
18.401 18.79 0
44.398 16.577 0
44.398 -16.577 0
18.401 -18.79 100
18.401 18.79 100
44.398 16.577 100
44.398 -16.577 100
18.401 -18.79 0
15.961 -18.197 0
15.961 18.197 0
18.401 18.79 0
18.401 -18.79 100
15.961 -18.197 100
15.961 18.197 100
18.401 18.79 100
15.961 -18.197 0
15.105 -18.099 0
13.681 -17.929 0
12.356 -17.763 0
11.124 -17.6 0
9.982 -17.442 0
8.923 -17.288 0
7.945 -17.138 0
7.044 -16.992 0
6.214 -16.85 0
5.453 -16.712 0
4.755 -16.578 0
4.119 -16.448 0
3.539 -16.322 0
3.013 -16.2 0
2.537 -16.082 0
2.107 -15.968 0
1.722 -15.858 0
1.377 -15.752 0
1.069 -15.65 0
0.796 -15.552 0
0.555 -15.458 0
0.344 -15.368 0
0.16 -15.282 0
0 -15.2 0
0 15.2 0
0.16 15.282 0
0.344 15.368 0
0.555 15.458 0
0.796 15.552 0
1.069 15.65 0
1.377 15.752 0
1.722 15.858 0
2.107 15.968 0
2.537 16.082 0
3.013 16.2 0
3.539 16.322 0
4.119 16.448 0
4.755 16.578 0
5.453 16.712 0
6.214 16.85 0
7.044 16.992 0
7.945 17.138 0
8.923 17.288 0
9.982 17.442 0
11.124 17.6 0
12.356 17.763 0
13.681 17.929 0
15.105 18.099 0
15.961 18.197 0
15.961 -18.197 100
15.105 -18.099 100
13.681 -17.929 100
12.356 -17.763 100
11.124 -17.6 100
9.982 -17.442 100
8.923 -17.288 100
7.945 -17.138 100
7.044 -16.992 100
6.214 -16.85 100
5.453 -16.712 100
4.755 -16.578 100
4.119 -16.448 100
3.539 -16.322 100
3.013 -16.2 100
2.537 -16.082 100
2.107 -15.968 100
1.722 -15.858 100
1.377 -15.752 100
1.069 -15.65 100
0.796 -15.552 100
0.555 -15.458 100
0.344 -15.368 100
0.16 -15.282 100
0 -15.2 100
0 15.2 100
0.16 15.282 100
0.344 15.368 100
0.555 15.458 100
0.796 15.552 100
1.069 15.65 100
1.377 15.752 100
1.722 15.858 100
2.107 15.968 100
2.537 16.082 100
3.013 16.2 100
3.539 16.322 100
4.119 16.448 100
4.755 16.578 100
5.453 16.712 100
6.214 16.85 100
7.044 16.992 100
7.945 17.138 100
8.923 17.288 100
9.982 17.442 100
11.124 17.6 100
12.356 17.763 100
13.681 17.929 100
15.105 18.099 100
15.961 18.197 100
44.853 -16.615 0
44.853 13.785 0
94.853 13.785 0
94.853 -16.615 0
44.853 -16.615 100
44.853 13.785 100
94.853 13.785 100
94.853 -16.615 100
44.853 -13.785 0
44.853 16.615 0
94.853 16.615 0
94.853 -13.785 0
44.853 -13.785 100
44.853 16.615 100
94.853 16.615 100
94.853 -13.785 100
-50 -15.2 0
-50 15.2 0
0 15.2 0
0 -15.2 0
-50 -15.2 100
-50 15.2 100
0 15.2 100
0 -15.2 100
3 2 0 3
3 1 0 2
3 6 4 7
3 5 4 6
3 8 11 9
3 10 9 11
3 12 15 13
3 14 13 15
3 17 16 18
3 18 16 19
3 21 20 22
3 22 20 23
3 26 24 27
3 25 24 26
3 30 28 31
3 29 28 30
3 43 69 44
3 55 54 56
3 52 56 53
3 53 56 54
3 51 56 52
3 50 56 51
3 49 56 50
3 48 56 49
3 47 56 48
3 56 47 57
3 65 57 66
3 62 57 63
3 60 57 61
3 58 57 59
3 59 57 60
3 61 57 62
3 63 57 64
3 64 57 65
3 47 66 57
3 46 66 47
3 66 46 67
3 45 67 46
3 67 45 68
3 44 68 45
3 68 44 69
3 69 43 70
3 42 70 43
3 70 42 71
3 41 71 42
3 71 41 72
3 40 72 41
3 72 40 73
3 39 73 40
3 73 39 74
3 38 74 39
3 74 38 75
3 37 75 38
3 75 37 76
3 36 76 37
3 76 36 77
3 35 77 36
3 77 35 78
3 34 78 35
3 78 34 79
3 33 79 34
3 79 33 80
3 32 80 33
3 80 32 81
3 93 119 94
3 105 104 106
3 102 106 103
3 103 106 104
3 101 106 102
3 100 106 101
3 99 106 100
3 98 106 99
3 97 106 98
3 106 97 107
3 115 107 116
3 112 107 113
3 110 107 111
3 108 107 109
3 109 107 110
3 111 107 112
3 113 107 114
3 114 107 115
3 97 116 107
3 96 116 97
3 116 96 117
3 95 117 96
3 117 95 118
3 94 118 95
3 118 94 119
3 119 93 120
3 92 120 93
3 120 92 121
3 91 121 92
3 121 91 122
3 90 122 91
3 122 90 123
3 89 123 90
3 123 89 124
3 88 124 89
3 124 88 125
3 87 125 88
3 125 87 126
3 86 126 87
3 126 86 127
3 85 127 86
3 127 85 128
3 84 128 85
3 128 84 129
3 83 129 84
3 129 83 130
3 82 130 83
3 130 82 131
3 133 132 134
3 134 132 135
3 137 136 138
3 138 136 139
3 141 140 142
3 142 140 143
3 145 144 146
3 146 144 147
3 149 148 150
3 150 148 151
3 153 152 154
3 154 152 155
3 0 1 5
3 5 4 0
3 1 2 6
3 6 5 1
3 2 3 7
3 7 6 2
3 3 0 4
3 4 7 3
3 8 9 13
3 13 12 8
3 9 10 14
3 14 13 9
3 10 11 15
3 15 14 10
3 11 8 12
3 12 15 11
3 16 17 21
3 21 20 16
3 17 18 22
3 22 21 17
3 18 19 23
3 23 22 18
3 19 16 20
3 20 23 19
3 24 25 29
3 29 28 24
3 25 26 30
3 30 29 25
3 26 27 31
3 31 30 26
3 27 24 28
3 28 31 27
3 32 33 83
3 83 82 32
3 33 34 84
3 84 83 33
3 34 35 85
3 85 84 34
3 35 36 86
3 86 85 35
3 36 37 87
3 87 86 36
3 37 38 88
3 88 87 37
3 38 39 89
3 89 88 38
3 39 40 90
3 90 89 39
3 40 41 91
3 91 90 40
3 41 42 92
3 92 91 41
3 42 43 93
3 93 92 42
3 43 44 94
3 94 93 43
3 44 45 95
3 95 94 44
3 45 46 96
3 96 95 45
3 46 47 97
3 97 96 46
3 47 48 98
3 98 97 47
3 48 49 99
3 99 98 48
3 49 50 100
3 100 99 49
3 50 51 101
3 101 100 50
3 51 52 102
3 102 101 51
3 52 53 103
3 103 102 52
3 53 54 104
3 104 103 53
3 54 55 105
3 105 104 54
3 55 56 106
3 106 105 55
3 56 57 107
3 107 106 56
3 57 58 108
3 108 107 57
3 58 59 109
3 109 108 58
3 59 60 110
3 110 109 59
3 60 61 111
3 111 110 60
3 61 62 112
3 112 111 61
3 62 63 113
3 113 112 62
3 63 64 114
3 114 113 63
3 64 65 115
3 115 114 64
3 65 66 116
3 116 115 65
3 66 67 117
3 117 116 66
3 67 68 118
3 118 117 67
3 68 69 119
3 119 118 68
3 69 70 120
3 120 119 69
3 70 71 121
3 121 120 70
3 71 72 122
3 122 121 71
3 72 73 123
3 123 122 72
3 73 74 124
3 124 123 73
3 74 75 125
3 125 124 74
3 75 76 126
3 126 125 75
3 76 77 127
3 127 126 76
3 77 78 128
3 128 127 77
3 78 79 129
3 129 128 78
3 79 80 130
3 130 129 79
3 80 81 131
3 131 130 80
3 81 32 82
3 82 131 81
3 132 133 137
3 137 136 132
3 133 134 138
3 138 137 133
3 134 135 139
3 139 138 134
3 135 132 136
3 136 139 135
3 140 141 145
3 145 144 140
3 141 142 146
3 146 145 141
3 142 143 147
3 147 146 142
3 143 140 144
3 144 147 143
3 148 149 153
3 153 152 148
3 149 150 154
3 154 153 149
3 150 151 155
3 155 154 150
3 151 148 152
3 152 155 151
