ply
format ascii 1.0
element vertex 224
property float x
property float y
property float z
element face 384
property list uchar int vertex_indices
end_header
94.353 -1.915 0
94.353 -1.665 0
94.153 -1.665 0
94.153 -1.165 0
94.353 -1.165 0
94.353 -0.915 0
94.853 -1.415 0
94.353 -1.915 100
94.353 -1.665 100
94.153 -1.665 100
94.153 -1.165 100
94.353 -1.165 100
94.353 -0.915 100
94.853 -1.415 100
45.353 -1.915 0
44.853 -1.415 0
45.353 -0.915 0
45.353 -1.165 0
45.553 -1.165 0
45.553 -1.665 0
45.353 -1.665 0
45.353 -1.915 100
44.853 -1.415 100
45.353 -0.915 100
45.353 -1.165 100
45.553 -1.165 100
45.553 -1.665 100
45.353 -1.665 100
94.353 0.915 0
94.353 1.165 0
94.153 1.165 0
94.153 1.665 0
94.353 1.665 0
94.353 1.915 0
94.853 1.415 0
94.353 0.915 100
94.353 1.165 100
94.153 1.165 100
94.153 1.665 100
94.353 1.665 100
94.353 1.915 100
94.853 1.415 100
45.353 0.915 0
44.853 1.415 0
45.353 1.915 0
45.353 1.665 0
45.553 1.665 0
45.553 1.165 0
45.353 1.165 0
45.353 0.915 100
44.853 1.415 100
45.353 1.915 100
45.353 1.665 100
45.553 1.665 100
45.553 1.165 100
45.353 1.165 100
-49.5 -0.5 0
-50 0 0
-49.5 0.5 0
-49.5 0.25 0
-49.3 0.25 0
-49.3 -0.25 0
-49.5 -0.25 0
-49.5 -0.5 100
-50 0 100
-49.5 0.5 100
-49.5 0.25 100
-49.3 0.25 100
-49.3 -0.25 100
-49.5 -0.25 100
-0.5 -0.5 0
-0.5 -0.25 0
-0.7 -0.25 0
-0.7 0.25 0
-0.5 0.25 0
-0.5 0.5 0
0 0 0
-0.5 -0.5 100
-0.5 -0.25 100
-0.7 -0.25 100
-0.7 0.25 100
-0.5 0.25 100
-0.5 0.5 100
0 0 100
44.353 -1.915 0
44.353 -1.665 0
44.153 -1.665 0
44.153 -1.165 0
44.353 -1.165 0
44.353 -0.915 0
44.853 -1.415 0
44.353 -1.915 100
44.353 -1.665 100
44.153 -1.665 100
44.153 -1.165 100
44.353 -1.165 100
44.353 -0.915 100
44.853 -1.415 100
44.898 -1.915 0
44.398 -1.415 0
44.898 -0.915 0
44.898 -1.165 0
45.098 -1.165 0
45.098 -1.665 0
44.898 -1.665 0
44.898 -1.915 100
44.398 -1.415 100
44.898 -0.915 100
44.898 -1.165 100
45.098 -1.165 100
45.098 -1.665 100
44.898 -1.665 100
44.353 0.915 0
44.353 1.165 0
44.153 1.165 0
44.153 1.665 0
44.353 1.665 0
44.353 1.915 0
44.853 1.415 0
44.353 0.915 100
44.353 1.165 100
44.153 1.165 100
44.153 1.665 100
44.353 1.665 100
44.353 1.915 100
44.853 1.415 100
44.898 0.915 0
44.398 1.415 0
44.898 1.915 0
44.898 1.665 0
45.098 1.665 0
45.098 1.165 0
44.898 1.165 0
44.898 0.915 100
44.398 1.415 100
44.898 1.915 100
44.898 1.665 100
45.098 1.665 100
45.098 1.165 100
44.898 1.165 100
43.898 -0.5 0
43.898 -0.25 0
43.698 -0.25 0
43.698 0.25 0
43.898 0.25 0
43.898 0.5 0
44.398 0 0
43.898 -0.5 100
43.898 -0.25 100
43.698 -0.25 100
43.698 0.25 100
43.898 0.25 100
43.898 0.5 100
44.398 0 100
18.901 -0.5 0
18.401 0 0
18.901 0.5 0
18.901 0.25 0
19.101 0.25 0
19.101 -0.25 0
18.901 -0.25 0
18.901 -0.5 100
18.401 0 100
18.901 0.5 100
18.901 0.25 100
19.101 0.25 100
19.101 -0.25 100
18.901 -0.25 100
17.901 -0.5 0
17.901 -0.25 0
17.701 -0.25 0
17.701 0.25 0
17.901 0.25 0
17.901 0.5 0
18.401 0 0
17.901 -0.5 100
17.901 -0.25 100
17.701 -0.25 100
17.701 0.25 100
17.901 0.25 100
17.901 0.5 100
18.401 0 100
16.461 -0.5 0
15.961 0 0
16.461 0.5 0
16.461 0.25 0
16.661 0.25 0
16.661 -0.25 0
16.461 -0.25 0
16.461 -0.5 100
15.961 0 100
16.461 0.5 100
16.461 0.25 100
16.661 0.25 100
16.661 -0.25 100
16.461 -0.25 100
15.461 -0.5 0
15.461 -0.25 0
15.261 -0.25 0
15.261 0.25 0
15.461 0.25 0
15.461 0.5 0
15.961 0 0
15.461 -0.5 100
15.461 -0.25 100
15.261 -0.25 100
15.261 0.25 100
15.461 0.25 100
15.461 0.5 100
15.961 0 100
0.5 -0.5 0
0 0 0
0.5 0.5 0
0.5 0.25 0
0.7 0.25 0
0.7 -0.25 0
0.5 -0.25 0
0.5 -0.5 100
0 0 100
0.5 0.5 100
0.5 0.25 100
0.7 0.25 100
0.7 -0.25 100
0.5 -0.25 100
3 1 0 6
3 3 1 4
3 2 1 3
3 4 1 6
3 5 4 6
3 8 7 13
3 10 8 11
3 9 8 10
3 11 8 13
3 12 11 13
3 19 17 20
3 18 17 19
3 17 16 15
3 15 20 17
3 15 14 20
3 26 24 27
3 25 24 26
3 24 23 22
3 22 27 24
3 22 21 27
3 29 28 34
3 31 29 32
3 30 29 31
3 32 29 34
3 33 32 34
3 36 35 41
3 38 36 39
3 37 36 38
3 39 36 41
3 40 39 41
3 47 45 48
3 46 45 47
3 45 44 43
3 43 48 45
3 43 42 48
3 54 52 55
3 53 52 54
3 52 51 50
3 50 55 52
3 50 49 55
3 61 59 62
3 60 59 61
3 59 58 57
3 57 62 59
3 57 56 62
3 68 66 69
3 67 66 68
3 66 65 64
3 64 69 66
3 64 63 69
3 71 70 76
3 73 71 74
3 72 71 73
3 74 71 76
3 75 74 76
3 78 77 83
3 80 78 81
3 79 78 80
3 81 78 83
3 82 81 83
3 85 84 90
3 87 85 88
3 86 85 87
3 88 85 90
3 89 88 90
3 92 91 97
3 94 92 95
3 93 92 94
3 95 92 97
3 96 95 97
3 103 101 104
3 102 101 103
3 101 100 99
3 99 104 101
3 99 98 104
3 110 108 111
3 109 108 110
3 108 107 106
3 106 111 108
3 106 105 111
3 113 112 118
3 115 113 116
3 114 113 115
3 116 113 118
3 117 116 118
3 120 119 125
3 122 120 123
3 121 120 122
3 123 120 125
3 124 123 125
3 131 129 132
3 130 129 131
3 129 128 127
3 127 132 129
3 127 126 132
3 138 136 139
3 137 136 138
3 136 135 134
3 134 139 136
3 134 133 139
3 141 140 146
3 143 141 144
3 142 141 143
3 144 141 146
3 145 144 146
3 148 147 153
3 150 148 151
3 149 148 150
3 151 148 153
3 152 151 153
3 159 157 160
3 158 157 159
3 157 156 155
3 155 160 157
3 155 154 160
3 166 164 167
3 165 164 166
3 164 163 162
3 162 167 164
3 162 161 167
3 169 168 174
3 171 169 172
3 170 169 171
3 172 169 174
3 173 172 174
3 176 175 181
3 178 176 179
3 177 176 178
3 179 176 181
3 180 179 181
3 187 185 188
3 186 185 187
3 185 184 183
3 183 188 185
3 183 182 188
3 194 192 195
3 193 192 194
3 192 191 190
3 190 195 192
3 190 189 195
3 197 196 202
3 199 197 200
3 198 197 199
3 200 197 202
3 201 200 202
3 204 203 209
3 206 204 207
3 205 204 206
3 207 204 209
3 208 207 209
3 215 213 216
3 214 213 215
3 213 212 211
3 211 216 213
3 211 210 216
3 222 220 223
3 221 220 222
3 220 219 218
3 218 223 220
3 218 217 223
3 0 1 8
3 8 7 0
3 1 2 9
3 9 8 1
3 2 3 10
3 10 9 2
3 3 4 11
3 11 10 3
3 4 5 12
3 12 11 4
3 5 6 13
3 13 12 5
3 6 0 7
3 7 13 6
3 14 15 22
3 22 21 14
3 15 16 23
3 23 22 15
3 16 17 24
3 24 23 16
3 17 18 25
3 25 24 17
3 18 19 26
3 26 25 18
3 19 20 27
3 27 26 19
3 20 14 21
3 21 27 20
3 28 29 36
3 36 35 28
3 29 30 37
3 37 36 29
3 30 31 38
3 38 37 30
3 31 32 39
3 39 38 31
3 32 33 40
3 40 39 32
3 33 34 41
3 41 40 33
3 34 28 35
3 35 41 34
3 42 43 50
3 50 49 42
3 43 44 51
3 51 50 43
3 44 45 52
3 52 51 44
3 45 46 53
3 53 52 45
3 46 47 54
3 54 53 46
3 47 48 55
3 55 54 47
3 48 42 49
3 49 55 48
3 56 57 64
3 64 63 56
3 57 58 65
3 65 64 57
3 58 59 66
3 66 65 58
3 59 60 67
3 67 66 59
3 60 61 68
3 68 67 60
3 61 62 69
3 69 68 61
3 62 56 63
3 63 69 62
3 70 71 78
3 78 77 70
3 71 72 79
3 79 78 71
3 72 73 80
3 80 79 72
3 73 74 81
3 81 80 73
3 74 75 82
3 82 81 74
3 75 76 83
3 83 82 75
3 76 70 77
3 77 83 76
3 84 85 92
3 92 91 84
3 85 86 93
3 93 92 85
3 86 87 94
3 94 93 86
3 87 88 95
3 95 94 87
3 88 89 96
3 96 95 88
3 89 90 97
3 97 96 89
3 90 84 91
3 91 97 90
3 98 99 106
3 106 105 98
3 99 100 107
3 107 106 99
3 100 101 108
3 108 107 100
3 101 102 109
3 109 108 101
3 102 103 110
3 110 109 102
3 103 104 111
3 111 110 103
3 104 98 105
3 105 111 104
3 112 113 120
3 120 119 112
3 113 114 121
3 121 120 113
3 114 115 122
3 122 121 114
3 115 116 123
3 123 122 115
3 116 117 124
3 124 123 116
3 117 118 125
3 125 124 117
3 118 112 119
3 119 125 118
3 126 127 134
3 134 133 126
3 127 128 135
3 135 134 127
3 128 129 136
3 136 135 128
3 129 130 137
3 137 136 129
3 130 131 138
3 138 137 130
3 131 132 139
3 139 138 131
3 132 126 133
3 133 139 132
3 140 141 148
3 148 147 140
3 141 142 149
3 149 148 141
3 142 143 150
3 150 149 142
3 143 144 151
3 151 150 143
3 144 145 152
3 152 151 144
3 145 146 153
3 153 152 145
3 146 140 147
3 147 153 146
3 154 155 162
3 162 161 154
3 155 156 163
3 163 162 155
3 156 157 164
3 164 163 156
3 157 158 165
3 165 164 157
3 158 159 166
3 166 165 158
3 159 160 167
3 167 166 159
3 160 154 161
3 161 167 160
3 168 169 176
3 176 175 168
3 169 170 177
3 177 176 169
3 170 171 178
3 178 177 170
3 171 172 179
3 179 178 171
3 172 173 180
3 180 179 172
3 173 174 181
3 181 180 173
3 174 168 175
3 175 181 174
3 182 183 190
3 190 189 182
3 183 184 191
3 191 190 183
3 184 185 192
3 192 191 184
3 185 186 193
3 193 192 185
3 186 187 194
3 194 193 186
3 187 188 195
3 195 194 187
3 188 182 189
3 189 195 188
3 196 197 204
3 204 203 196
3 197 198 205
3 205 204 197
3 198 199 206
3 206 205 198
3 199 200 207
3 207 206 199
3 200 201 208
3 208 207 200
3 201 202 209
3 209 208 201
3 202 196 203
3 203 209 202
3 210 211 218
3 218 217 210
3 211 212 219
3 219 218 211
3 212 213 220
3 220 219 212
3 213 214 221
3 221 220 213
3 214 215 222
3 222 221 214
3 215 216 223
3 223 222 215
3 216 210 217
3 217 223 216
