ply
format ascii 1.0
element vertex 196
property float x
property float y
property float z
element face 360
property list uchar int vertex_indices
end_header
44.853 -2.215 0
44.398 -2.177 0
44.398 -0.654 0
44.853 -0.615 0
44.853 -2.215 100
44.398 -2.177 100
44.398 -0.654 100
44.853 -0.615 100
44.853 0.615 0
44.398 0.654 0
44.398 2.177 0
44.853 2.215 0
44.853 0.615 100
44.398 0.654 100
44.398 2.177 100
44.853 2.215 100
18.401 -4.39 0
18.401 4.39 0
44.398 2.177 0
44.398 -2.177 0
18.401 -4.39 100
18.401 4.39 100
44.398 2.177 100
44.398 -2.177 100
18.401 -4.39 0
15.961 -3.797 0
15.961 3.797 0
18.401 4.39 0
18.401 -4.39 100
15.961 -3.797 100
15.961 3.797 100
18.401 4.39 100
15.961 -3.797 0
15.601 -3.756 0
14.56 -3.634 0
13.57 -3.515 0
12.629 -3.397 0
11.734 -3.282 0
10.886 -3.168 0
10.081 -3.057 0
9.319 -2.947 0
8.598 -2.839 0
7.916 -2.734 0
7.273 -2.63 0
6.666 -2.529 0
6.094 -2.429 0
5.556 -2.332 0
5.05 -2.236 0
4.575 -2.142 0
4.131 -2.051 0
3.714 -1.961 0
3.325 -1.874 0
2.962 -1.788 0
2.624 -1.705 0
2.31 -1.623 0
2.018 -1.543 0
1.747 -1.466 0
1.497 -1.39 0
1.267 -1.317 0
1.054 -1.245 0
0.859 -1.175 0
0.68 -1.108 0
0.517 -1.042 0
0.368 -0.979 0
0.233 -0.917 0
0.111 -0.858 0
0 -0.8 0
0 0.8 0
0.111 0.858 0
0.233 0.917 0
0.368 0.979 0
0.517 1.042 0
0.68 1.108 0
0.859 1.175 0
1.054 1.245 0
1.267 1.317 0
1.497 1.39 0
1.747 1.466 0
2.018 1.543 0
2.31 1.623 0
2.624 1.705 0
2.962 1.788 0
3.325 1.874 0
3.714 1.961 0
4.131 2.051 0
4.575 2.142 0
5.05 2.236 0
5.556 2.332 0
6.094 2.429 0
6.666 2.529 0
7.273 2.63 0
7.916 2.734 0
8.598 2.839 0
9.319 2.947 0
10.081 3.057 0
10.886 3.168 0
11.734 3.282 0
12.629 3.397 0
13.57 3.515 0
14.56 3.634 0
15.601 3.756 0
15.961 3.797 0
15.961 -3.797 100
15.601 -3.756 100
14.56 -3.634 100
13.57 -3.515 100
12.629 -3.397 100
11.734 -3.282 100
10.886 -3.168 100
10.081 -3.057 100
9.319 -2.947 100
8.598 -2.839 100
7.916 -2.734 100
7.273 -2.63 100
6.666 -2.529 100
6.094 -2.429 100
5.556 -2.332 100
5.05 -2.236 100
4.575 -2.142 100
4.131 -2.051 100
3.714 -1.961 100
3.325 -1.874 100
2.962 -1.788 100
2.624 -1.705 100
2.31 -1.623 100
2.018 -1.543 100
1.747 -1.466 100
1.497 -1.39 100
1.267 -1.317 100
1.054 -1.245 100
0.859 -1.175 100
0.68 -1.108 100
0.517 -1.042 100
0.368 -0.979 100
0.233 -0.917 100
0.111 -0.858 100
0 -0.8 100
0 0.8 100
0.111 0.858 100
0.233 0.917 100
0.368 0.979 100
0.517 1.042 100
0.68 1.108 100
0.859 1.175 100
1.054 1.245 100
1.267 1.317 100
1.497 1.39 100
1.747 1.466 100
2.018 1.543 100
2.31 1.623 100
2.624 1.705 100
2.962 1.788 100
3.325 1.874 100
3.714 1.961 100
4.131 2.051 100
4.575 2.142 100
5.05 2.236 100
5.556 2.332 100
6.094 2.429 100
6.666 2.529 100
7.273 2.63 100
7.916 2.734 100
8.598 2.839 100
9.319 2.947 100
10.081 3.057 100
10.886 3.168 100
11.734 3.282 100
12.629 3.397 100
13.57 3.515 100
14.56 3.634 100
15.601 3.756 100
15.961 3.797 100
44.853 -2.215 0
44.853 -0.615 0
94.853 -0.615 0
94.853 -2.215 0
44.853 -2.215 100
44.853 -0.615 100
94.853 -0.615 100
94.853 -2.215 100
44.853 0.615 0
44.853 2.215 0
94.853 2.215 0
94.853 0.615 0
44.853 0.615 100
44.853 2.215 100
94.853 2.215 100
94.853 0.615 100
-50 -0.8 0
-50 0.8 0
0 0.8 0
0 -0.8 0
-50 -0.8 100
-50 0.8 100
0 0.8 100
0 -0.8 100
3 2 0 3
3 1 0 2
3 6 4 7
3 5 4 6
3 8 11 9
3 10 9 11
3 12 15 13
3 14 13 15
3 18 16 19
3 17 16 18
3 22 20 23
3 21 20 22
3 26 24 27
3 25 24 26
3 30 28 31
3 29 28 30
3 94 38 95
3 70 62 71
3 68 64 69
3 62 70 63
3 67 65 68
3 64 68 65
3 69 63 70
3 66 65 67
3 63 69 64
3 61 71 62
3 71 61 72
3 60 72 61
3 72 60 73
3 59 73 60
3 73 59 74
3 58 74 59
3 74 58 75
3 57 75 58
3 75 57 76
3 56 76 57
3 76 56 77
3 55 77 56
3 77 55 78
3 54 78 55
3 78 54 79
3 53 79 54
3 79 53 80
3 52 80 53
3 80 52 81
3 51 81 52
3 81 51 82
3 50 82 51
3 82 50 83
3 49 83 50
3 83 49 84
3 48 84 49
3 84 48 85
3 47 85 48
3 85 47 86
3 46 86 47
3 86 46 87
3 45 87 46
3 87 45 88
3 44 88 45
3 88 44 89
3 43 89 44
3 89 43 90
3 42 90 43
3 90 42 91
3 41 91 42
3 91 41 92
3 40 92 41
3 92 40 93
3 39 93 40
3 93 39 94
3 38 94 39
3 37 95 38
3 95 37 96
3 36 96 37
3 96 36 97
3 35 97 36
3 97 35 98
3 34 98 35
3 98 34 99
3 33 99 34
3 99 33 100
3 32 100 33
3 100 32 101
3 164 108 165
3 140 132 141
3 138 134 139
3 132 140 133
3 137 135 138
3 134 138 135
3 139 133 140
3 136 135 137
3 133 139 134
3 131 141 132
3 141 131 142
3 130 142 131
3 142 130 143
3 129 143 130
3 143 129 144
3 128 144 129
3 144 128 145
3 127 145 128
3 145 127 146
3 126 146 127
3 146 126 147
3 125 147 126
3 147 125 148
3 124 148 125
3 148 124 149
3 123 149 124
3 149 123 150
3 122 150 123
3 150 122 151
3 121 151 122
3 151 121 152
3 120 152 121
3 152 120 153
3 119 153 120
3 153 119 154
3 118 154 119
3 154 118 155
3 117 155 118
3 155 117 156
3 116 156 117
3 156 116 157
3 115 157 116
3 157 115 158
3 114 158 115
3 158 114 159
3 113 159 114
3 159 113 160
3 112 160 113
3 160 112 161
3 111 161 112
3 161 111 162
3 110 162 111
3 162 110 163
3 109 163 110
3 163 109 164
3 108 164 109
3 107 165 108
3 165 107 166
3 106 166 107
3 166 106 167
3 105 167 106
3 167 105 168
3 104 168 105
3 168 104 169
3 103 169 104
3 169 103 170
3 102 170 103
3 170 102 171
3 174 172 175
3 173 172 174
3 178 176 179
3 177 176 178
3 182 180 183
3 181 180 182
3 186 184 187
3 185 184 186
3 190 188 191
3 189 188 190
3 194 192 195
3 193 192 194
3 0 1 5
3 5 4 0
3 1 2 6
3 6 5 1
3 2 3 7
3 7 6 2
3 3 0 4
3 4 7 3
3 8 9 13
3 13 12 8
3 9 10 14
3 14 13 9
3 10 11 15
3 15 14 10
3 11 8 12
3 12 15 11
3 16 17 21
3 21 20 16
3 17 18 22
3 22 21 17
3 18 19 23
3 23 22 18
3 19 16 20
3 20 23 19
3 24 25 29
3 29 28 24
3 25 26 30
3 30 29 25
3 26 27 31
3 31 30 26
3 27 24 28
3 28 31 27
3 32 33 103
3 103 102 32
3 33 34 104
3 104 103 33
3 34 35 105
3 105 104 34
3 35 36 106
3 106 105 35
3 36 37 107
3 107 106 36
3 37 38 108
3 108 107 37
3 38 39 109
3 109 108 38
3 39 40 110
3 110 109 39
3 40 41 111
3 111 110 40
3 41 42 112
3 112 111 41
3 42 43 113
3 113 112 42
3 43 44 114
3 114 113 43
3 44 45 115
3 115 114 44
3 45 46 116
3 116 115 45
3 46 47 117
3 117 116 46
3 47 48 118
3 118 117 47
3 48 49 119
3 119 118 48
3 49 50 120
3 120 119 49
3 50 51 121
3 121 120 50
3 51 52 122
3 122 121 51
3 52 53 123
3 123 122 52
3 53 54 124
3 124 123 53
3 54 55 125
3 125 124 54
3 55 56 126
3 126 125 55
3 56 57 127
3 127 126 56
3 57 58 128
3 128 127 57
3 58 59 129
3 129 128 58
3 59 60 130
3 130 129 59
3 60 61 131
3 131 130 60
3 61 62 132
3 132 131 61
3 62 63 133
3 133 132 62
3 63 64 134
3 134 133 63
3 64 65 135
3 135 134 64
3 65 66 136
3 136 135 65
3 66 67 137
3 137 136 66
3 67 68 138
3 138 137 67
3 68 69 139
3 139 138 68
3 69 70 140
3 140 139 69
3 70 71 141
3 141 140 70
3 71 72 142
3 142 141 71
3 72 73 143
3 143 142 72
3 73 74 144
3 144 143 73
3 74 75 145
3 145 144 74
3 75 76 146
3 146 145 75
3 76 77 147
3 147 146 76
3 77 78 148
3 148 147 77
3 78 79 149
3 149 148 78
3 79 80 150
3 150 149 79
3 80 81 151
3 151 150 80
3 81 82 152
3 152 151 81
3 82 83 153
3 153 152 82
3 83 84 154
3 154 153 83
3 84 85 155
3 155 154 84
3 85 86 156
3 156 155 85
3 86 87 157
3 157 156 86
3 87 88 158
3 158 157 87
3 88 89 159
3 159 158 88
3 89 90 160
3 160 159 89
3 90 91 161
3 161 160 90
3 91 92 162
3 162 161 91
3 92 93 163
3 163 162 92
3 93 94 164
3 164 163 93
3 94 95 165
3 165 164 94
3 95 96 166
3 166 165 95
3 96 97 167
3 167 166 96
3 97 98 168
3 168 167 97
3 98 99 169
3 169 168 98
3 99 100 170
3 170 169 99
3 100 101 171
3 171 170 100
3 101 32 102
3 102 171 101
3 172 173 177
3 177 176 172
3 173 174 178
3 178 177 173
3 174 175 179
3 179 178 174
3 175 172 176
3 176 179 175
3 180 181 185
3 185 184 180
3 181 182 186
3 186 185 181
3 182 183 187
3 187 186 182
3 183 180 184
3 184 187 183
3 188 189 193
3 193 192 188
3 189 190 194
3 194 193 189
3 190 191 195
3 195 194 190
3 191 188 192
3 192 195 191
